<svg xmlns="http://www.w3.org/2000/svg" viewBox="0 0 512 512" role="img" aria-label="Free AI Forever">
  <rect width="512" height="512" rx="112" fill="#2680EB"/>
  <!-- Chat bubble -->
  <path d="M140 132h232a40 40 0 0 1 40 40v140a40 40 0 0 1-40 40H236l-72 60v-60h-24a40 40 0 0 1-40-40V172a40 40 0 0 1 40-40z" fill="#ffffff"/>
  <!-- Infinity mark = "forever" -->
  <path d="M196 212c-24 0-44 14-44 36s20 36 44 36c20 0 32-12 44-28 12 16 24 28 44 28 24 0 44-14 44-36s-20-36-44-36c-20 0-32 12-44 28-12-16-24-28-44-28zm0 28c10 0 17 6 26 18-9 12-16 18-26 18-12 0-20-7-20-18s8-18 20-18zm88 0c12 0 20 7 20 18s-8 18-20 18c-10 0-17-6-26-18 9-12 16-18 26-18z" fill="#2680EB"/>
</svg>
